M48
; DRILL file {KiCad 7.0.7} date Thu Jun 20 17:34:28 2024
; FORMAT={-:-/ absolute / inch / decimal}
; #@! TF.CreationDate,2024-06-20T17:34:28-04:00
; #@! TF.GenerationSoftware,Kicad,Pcbnew,7.0.7
; #@! TF.FileFunction,Plated,1,4,PTH
FMAT,2
INCH
; #@! TA.AperFunction,Plated,PTH,ViaDrill
T1C0.0157
; #@! TA.AperFunction,Plated,PTH,ComponentDrill
T2C0.0354
; #@! TA.AperFunction,Plated,PTH,ComponentDrill
T3C0.0421
; #@! TA.AperFunction,Plated,PTH,ComponentDrill
T4C0.1138
%
G90
G05
T1
X5.937Y-3.6496
X5.9606Y-3.6181
X5.9858Y-3.5879
X6.0039Y-2.7441
X6.0197Y-3.1102
X6.0217Y-3.1634
X6.0236Y-3.2165
X6.0256Y-3.2756
X6.1299Y-2.7441
X6.2087Y-2.7441
X6.4094Y-2.1614
X6.4094Y-2.2008
X6.4094Y-2.2402
X6.4488Y-2.1614
X6.4488Y-2.2008
X6.4488Y-2.2402
X6.4882Y-2.1614
X6.4882Y-2.2008
X6.4882Y-2.2402
X6.5276Y-2.1614
X6.5276Y-2.2008
X6.5276Y-2.2402
X6.5669Y-2.1614
X6.5669Y-2.2008
X6.5669Y-2.2402
X6.6063Y-2.1614
X6.6063Y-2.2008
X6.6063Y-2.2402
X6.6457Y-2.1614
X6.6457Y-2.2008
X6.6457Y-2.2402
X6.685Y-2.1614
X6.685Y-2.2008
X6.685Y-2.2402
X6.752Y-2.1024
X6.7975Y-2.0276
X7.2756Y-2.1614
X7.2756Y-2.2008
X7.2756Y-2.2402
X7.315Y-2.1614
X7.315Y-2.2008
X7.315Y-2.2402
X7.3543Y-2.1614
X7.3543Y-2.2008
X7.3543Y-2.2402
X7.3937Y-2.1614
X7.3937Y-2.2008
X7.3937Y-2.2402
X7.4331Y-2.1614
X7.4331Y-2.2008
X7.4331Y-2.2402
X7.4724Y-2.1614
X7.4724Y-2.2008
X7.4724Y-2.2402
X7.5118Y-2.1614
X7.5118Y-2.2008
X7.5118Y-2.2402
X7.5512Y-2.1614
X7.5512Y-2.2008
X7.5512Y-2.2402
X7.6181Y-2.2008
X7.6557Y-1.9961
X8.1417Y-2.1614
X8.1417Y-2.2008
X8.1417Y-2.2402
X8.1811Y-2.1614
X8.1811Y-2.2008
X8.1811Y-2.2402
X8.2205Y-2.1614
X8.2205Y-2.2008
X8.2205Y-2.2402
X8.2598Y-2.1614
X8.2598Y-2.2008
X8.2598Y-2.2402
X8.2992Y-2.1614
X8.2992Y-2.2008
X8.2992Y-2.2402
X8.3386Y-2.1614
X8.3386Y-2.2008
X8.3386Y-2.2402
X8.378Y-2.1614
X8.378Y-2.2008
X8.378Y-2.2402
X8.4173Y-2.1614
X8.4173Y-2.2008
X8.4173Y-2.2402
X8.4746Y-1.9646
X8.4843Y-2.2008
X9.0079Y-2.1614
X9.0079Y-2.2008
X9.0079Y-2.2402
X9.0472Y-2.1614
X9.0472Y-2.2008
X9.0472Y-2.2402
X9.0866Y-2.1614
X9.0866Y-2.2008
X9.0866Y-2.2402
X9.126Y-2.1614
X9.126Y-2.2008
X9.126Y-2.2402
X9.1654Y-2.1614
X9.1654Y-2.2008
X9.1654Y-2.2402
X9.2047Y-2.1614
X9.2047Y-2.2008
X9.2047Y-2.2402
X9.2441Y-2.1614
X9.2441Y-2.2008
X9.2441Y-2.2402
X9.2835Y-2.1614
X9.2835Y-2.2008
X9.2835Y-2.2402
X9.3504Y-2.2047
T2
X6.0075Y-2.4528
X6.0575Y-2.4528
X6.1075Y-2.4528
X6.1575Y-2.4528
T3
X6.33Y-3.93
X6.33Y-4.03
X6.33Y-4.13
X6.43Y-3.93
X6.43Y-4.03
X6.43Y-4.13
X6.53Y-3.93
X6.53Y-4.03
X6.53Y-4.13
X6.63Y-3.93
X6.63Y-4.03
X6.63Y-4.13
X6.73Y-3.93
X6.73Y-4.03
X6.73Y-4.13
X6.83Y-3.93
X6.83Y-4.03
X6.83Y-4.13
X6.93Y-3.93
X6.93Y-4.03
X6.93Y-4.13
X7.03Y-3.93
X7.03Y-4.03
X7.03Y-4.13
X7.13Y-3.93
X7.13Y-4.03
X7.13Y-4.13
X7.23Y-3.93
X7.23Y-4.03
X7.23Y-4.13
X7.33Y-3.93
X7.33Y-4.03
X7.33Y-4.13
X7.43Y-3.93
X7.43Y-4.03
X7.43Y-4.13
X7.53Y-3.93
X7.53Y-4.03
X7.53Y-4.13
X7.63Y-3.93
X7.63Y-4.03
X7.63Y-4.13
X7.73Y-3.93
X7.73Y-4.03
X7.73Y-4.13
X7.83Y-3.93
X7.83Y-4.03
X7.83Y-4.13
X7.93Y-3.93
X7.93Y-4.03
X7.93Y-4.13
X8.03Y-3.93
X8.03Y-4.03
X8.03Y-4.13
X8.13Y-3.93
X8.13Y-4.03
X8.13Y-4.13
X8.23Y-3.93
X8.23Y-4.03
X8.23Y-4.13
X8.33Y-3.93
X8.33Y-4.03
X8.33Y-4.13
X8.43Y-3.93
X8.43Y-4.03
X8.43Y-4.13
X8.53Y-3.93
X8.53Y-4.03
X8.53Y-4.13
X8.63Y-3.93
X8.63Y-4.03
X8.63Y-4.13
X8.73Y-3.93
X8.73Y-4.03
X8.73Y-4.13
X8.83Y-3.93
X8.83Y-4.03
X8.83Y-4.13
X8.93Y-3.93
X8.93Y-4.03
X8.93Y-4.13
X9.03Y-3.93
X9.03Y-4.03
X9.03Y-4.13
X9.13Y-3.93
X9.13Y-4.03
X9.13Y-4.13
X9.23Y-3.93
X9.23Y-4.03
X9.23Y-4.13
X9.33Y-3.93
X9.33Y-4.03
X9.33Y-4.13
X9.43Y-3.93
X9.43Y-4.03
X9.43Y-4.13
T4
X6.13Y-4.23
X9.63Y-4.23
T0
M30
