%TF.GenerationSoftware,KiCad,Pcbnew,7.0.7*%
%TF.CreationDate,2024-03-27T23:33:24-04:00*%
%TF.ProjectId,Backplane,4261636b-706c-4616-9e65-2e6b69636164,rev?*%
%TF.SameCoordinates,Original*%
%TF.FileFunction,Legend,Top*%
%TF.FilePolarity,Positive*%
%FSLAX46Y46*%
G04 Gerber Fmt 4.6, Leading zero omitted, Abs format (unit mm)*
G04 Created by KiCad (PCBNEW 7.0.7) date 2024-03-27 23:33:24*
%MOMM*%
%LPD*%
G01*
G04 APERTURE LIST*
%ADD10C,0.096520*%
%ADD11C,0.150000*%
%ADD12C,0.254000*%
%ADD13C,0.120000*%
%ADD14C,0.127000*%
%ADD15C,0.152400*%
%ADD16C,0.508000*%
G04 APERTURE END LIST*
D10*
X160817076Y-147078427D02*
X160817076Y-147940213D01*
X160817076Y-147940213D02*
X160759623Y-148112570D01*
X160759623Y-148112570D02*
X160644719Y-148227475D01*
X160644719Y-148227475D02*
X160472361Y-148284927D01*
X160472361Y-148284927D02*
X160357457Y-148284927D01*
X161908671Y-147078427D02*
X161678861Y-147078427D01*
X161678861Y-147078427D02*
X161563957Y-147135879D01*
X161563957Y-147135879D02*
X161506504Y-147193332D01*
X161506504Y-147193332D02*
X161391599Y-147365689D01*
X161391599Y-147365689D02*
X161334147Y-147595498D01*
X161334147Y-147595498D02*
X161334147Y-148055117D01*
X161334147Y-148055117D02*
X161391599Y-148170022D01*
X161391599Y-148170022D02*
X161449052Y-148227475D01*
X161449052Y-148227475D02*
X161563957Y-148284927D01*
X161563957Y-148284927D02*
X161793766Y-148284927D01*
X161793766Y-148284927D02*
X161908671Y-148227475D01*
X161908671Y-148227475D02*
X161966123Y-148170022D01*
X161966123Y-148170022D02*
X162023576Y-148055117D01*
X162023576Y-148055117D02*
X162023576Y-147767855D01*
X162023576Y-147767855D02*
X161966123Y-147652951D01*
X161966123Y-147652951D02*
X161908671Y-147595498D01*
X161908671Y-147595498D02*
X161793766Y-147538046D01*
X161793766Y-147538046D02*
X161563957Y-147538046D01*
X161563957Y-147538046D02*
X161449052Y-147595498D01*
X161449052Y-147595498D02*
X161391599Y-147652951D01*
X161391599Y-147652951D02*
X161334147Y-147767855D01*
D11*
X82689804Y-133331892D02*
X82689804Y-134046177D01*
X82689804Y-134046177D02*
X82642185Y-134189034D01*
X82642185Y-134189034D02*
X82546947Y-134284273D01*
X82546947Y-134284273D02*
X82404090Y-134331892D01*
X82404090Y-134331892D02*
X82308852Y-134331892D01*
X83689804Y-134331892D02*
X83118376Y-134331892D01*
X83404090Y-134331892D02*
X83404090Y-133331892D01*
X83404090Y-133331892D02*
X83308852Y-133474749D01*
X83308852Y-133474749D02*
X83213614Y-133569987D01*
X83213614Y-133569987D02*
X83118376Y-133617606D01*
X84642185Y-134331892D02*
X84070757Y-134331892D01*
X84356471Y-134331892D02*
X84356471Y-133331892D01*
X84356471Y-133331892D02*
X84261233Y-133474749D01*
X84261233Y-133474749D02*
X84165995Y-133569987D01*
X84165995Y-133569987D02*
X84070757Y-133617606D01*
X87961673Y-136498081D02*
X87961673Y-137212366D01*
X87961673Y-137212366D02*
X87914054Y-137355223D01*
X87914054Y-137355223D02*
X87818816Y-137450462D01*
X87818816Y-137450462D02*
X87675959Y-137498081D01*
X87675959Y-137498081D02*
X87580721Y-137498081D01*
X88914054Y-136498081D02*
X88437864Y-136498081D01*
X88437864Y-136498081D02*
X88390245Y-136974271D01*
X88390245Y-136974271D02*
X88437864Y-136926652D01*
X88437864Y-136926652D02*
X88533102Y-136879033D01*
X88533102Y-136879033D02*
X88771197Y-136879033D01*
X88771197Y-136879033D02*
X88866435Y-136926652D01*
X88866435Y-136926652D02*
X88914054Y-136974271D01*
X88914054Y-136974271D02*
X88961673Y-137069509D01*
X88961673Y-137069509D02*
X88961673Y-137307604D01*
X88961673Y-137307604D02*
X88914054Y-137402842D01*
X88914054Y-137402842D02*
X88866435Y-137450462D01*
X88866435Y-137450462D02*
X88771197Y-137498081D01*
X88771197Y-137498081D02*
X88533102Y-137498081D01*
X88533102Y-137498081D02*
X88437864Y-137450462D01*
X88437864Y-137450462D02*
X88390245Y-137402842D01*
X151860476Y-31320819D02*
X151860476Y-32035104D01*
X151860476Y-32035104D02*
X151812857Y-32177961D01*
X151812857Y-32177961D02*
X151717619Y-32273200D01*
X151717619Y-32273200D02*
X151574762Y-32320819D01*
X151574762Y-32320819D02*
X151479524Y-32320819D01*
X152860476Y-32320819D02*
X152289048Y-32320819D01*
X152574762Y-32320819D02*
X152574762Y-31320819D01*
X152574762Y-31320819D02*
X152479524Y-31463676D01*
X152479524Y-31463676D02*
X152384286Y-31558914D01*
X152384286Y-31558914D02*
X152289048Y-31606533D01*
X153193810Y-31320819D02*
X153812857Y-31320819D01*
X153812857Y-31320819D02*
X153479524Y-31701771D01*
X153479524Y-31701771D02*
X153622381Y-31701771D01*
X153622381Y-31701771D02*
X153717619Y-31749390D01*
X153717619Y-31749390D02*
X153765238Y-31797009D01*
X153765238Y-31797009D02*
X153812857Y-31892247D01*
X153812857Y-31892247D02*
X153812857Y-32130342D01*
X153812857Y-32130342D02*
X153765238Y-32225580D01*
X153765238Y-32225580D02*
X153717619Y-32273200D01*
X153717619Y-32273200D02*
X153622381Y-32320819D01*
X153622381Y-32320819D02*
X153336667Y-32320819D01*
X153336667Y-32320819D02*
X153241429Y-32273200D01*
X153241429Y-32273200D02*
X153193810Y-32225580D01*
X109765180Y-82216666D02*
X109050895Y-82216666D01*
X109050895Y-82216666D02*
X108908038Y-82169047D01*
X108908038Y-82169047D02*
X108812800Y-82073809D01*
X108812800Y-82073809D02*
X108765180Y-81930952D01*
X108765180Y-81930952D02*
X108765180Y-81835714D01*
X109765180Y-82597619D02*
X109765180Y-83216666D01*
X109765180Y-83216666D02*
X109384228Y-82883333D01*
X109384228Y-82883333D02*
X109384228Y-83026190D01*
X109384228Y-83026190D02*
X109336609Y-83121428D01*
X109336609Y-83121428D02*
X109288990Y-83169047D01*
X109288990Y-83169047D02*
X109193752Y-83216666D01*
X109193752Y-83216666D02*
X108955657Y-83216666D01*
X108955657Y-83216666D02*
X108860419Y-83169047D01*
X108860419Y-83169047D02*
X108812800Y-83121428D01*
X108812800Y-83121428D02*
X108765180Y-83026190D01*
X108765180Y-83026190D02*
X108765180Y-82740476D01*
X108765180Y-82740476D02*
X108812800Y-82645238D01*
X108812800Y-82645238D02*
X108860419Y-82597619D01*
X111590895Y-40414724D02*
X111590895Y-40890914D01*
X111305180Y-40319486D02*
X112305180Y-40652819D01*
X112305180Y-40652819D02*
X111305180Y-40986152D01*
X112305180Y-41224248D02*
X112305180Y-41843295D01*
X112305180Y-41843295D02*
X111924228Y-41509962D01*
X111924228Y-41509962D02*
X111924228Y-41652819D01*
X111924228Y-41652819D02*
X111876609Y-41748057D01*
X111876609Y-41748057D02*
X111828990Y-41795676D01*
X111828990Y-41795676D02*
X111733752Y-41843295D01*
X111733752Y-41843295D02*
X111495657Y-41843295D01*
X111495657Y-41843295D02*
X111400419Y-41795676D01*
X111400419Y-41795676D02*
X111352800Y-41748057D01*
X111352800Y-41748057D02*
X111305180Y-41652819D01*
X111305180Y-41652819D02*
X111305180Y-41367105D01*
X111305180Y-41367105D02*
X111352800Y-41271867D01*
X111352800Y-41271867D02*
X111400419Y-41224248D01*
X112209942Y-42224248D02*
X112257561Y-42271867D01*
X112257561Y-42271867D02*
X112305180Y-42367105D01*
X112305180Y-42367105D02*
X112305180Y-42605200D01*
X112305180Y-42605200D02*
X112257561Y-42700438D01*
X112257561Y-42700438D02*
X112209942Y-42748057D01*
X112209942Y-42748057D02*
X112114704Y-42795676D01*
X112114704Y-42795676D02*
X112019466Y-42795676D01*
X112019466Y-42795676D02*
X111876609Y-42748057D01*
X111876609Y-42748057D02*
X111305180Y-42176629D01*
X111305180Y-42176629D02*
X111305180Y-42795676D01*
X106748990Y-40724247D02*
X106701371Y-40867104D01*
X106701371Y-40867104D02*
X106653752Y-40914723D01*
X106653752Y-40914723D02*
X106558514Y-40962342D01*
X106558514Y-40962342D02*
X106415657Y-40962342D01*
X106415657Y-40962342D02*
X106320419Y-40914723D01*
X106320419Y-40914723D02*
X106272800Y-40867104D01*
X106272800Y-40867104D02*
X106225180Y-40771866D01*
X106225180Y-40771866D02*
X106225180Y-40390914D01*
X106225180Y-40390914D02*
X107225180Y-40390914D01*
X107225180Y-40390914D02*
X107225180Y-40724247D01*
X107225180Y-40724247D02*
X107177561Y-40819485D01*
X107177561Y-40819485D02*
X107129942Y-40867104D01*
X107129942Y-40867104D02*
X107034704Y-40914723D01*
X107034704Y-40914723D02*
X106939466Y-40914723D01*
X106939466Y-40914723D02*
X106844228Y-40867104D01*
X106844228Y-40867104D02*
X106796609Y-40819485D01*
X106796609Y-40819485D02*
X106748990Y-40724247D01*
X106748990Y-40724247D02*
X106748990Y-40390914D01*
X107225180Y-41295676D02*
X107225180Y-41914723D01*
X107225180Y-41914723D02*
X106844228Y-41581390D01*
X106844228Y-41581390D02*
X106844228Y-41724247D01*
X106844228Y-41724247D02*
X106796609Y-41819485D01*
X106796609Y-41819485D02*
X106748990Y-41867104D01*
X106748990Y-41867104D02*
X106653752Y-41914723D01*
X106653752Y-41914723D02*
X106415657Y-41914723D01*
X106415657Y-41914723D02*
X106320419Y-41867104D01*
X106320419Y-41867104D02*
X106272800Y-41819485D01*
X106272800Y-41819485D02*
X106225180Y-41724247D01*
X106225180Y-41724247D02*
X106225180Y-41438533D01*
X106225180Y-41438533D02*
X106272800Y-41343295D01*
X106272800Y-41343295D02*
X106320419Y-41295676D01*
X107129942Y-42295676D02*
X107177561Y-42343295D01*
X107177561Y-42343295D02*
X107225180Y-42438533D01*
X107225180Y-42438533D02*
X107225180Y-42676628D01*
X107225180Y-42676628D02*
X107177561Y-42771866D01*
X107177561Y-42771866D02*
X107129942Y-42819485D01*
X107129942Y-42819485D02*
X107034704Y-42867104D01*
X107034704Y-42867104D02*
X106939466Y-42867104D01*
X106939466Y-42867104D02*
X106796609Y-42819485D01*
X106796609Y-42819485D02*
X106225180Y-42248057D01*
X106225180Y-42248057D02*
X106225180Y-42867104D01*
X111590895Y-122780514D02*
X111590895Y-123256704D01*
X111305180Y-122685276D02*
X112305180Y-123018609D01*
X112305180Y-123018609D02*
X111305180Y-123351942D01*
X111305180Y-124209085D02*
X111305180Y-123637657D01*
X111305180Y-123923371D02*
X112305180Y-123923371D01*
X112305180Y-123923371D02*
X112162323Y-123828133D01*
X112162323Y-123828133D02*
X112067085Y-123732895D01*
X112067085Y-123732895D02*
X112019466Y-123637657D01*
X106748990Y-123090038D02*
X106701371Y-123232895D01*
X106701371Y-123232895D02*
X106653752Y-123280514D01*
X106653752Y-123280514D02*
X106558514Y-123328133D01*
X106558514Y-123328133D02*
X106415657Y-123328133D01*
X106415657Y-123328133D02*
X106320419Y-123280514D01*
X106320419Y-123280514D02*
X106272800Y-123232895D01*
X106272800Y-123232895D02*
X106225180Y-123137657D01*
X106225180Y-123137657D02*
X106225180Y-122756705D01*
X106225180Y-122756705D02*
X107225180Y-122756705D01*
X107225180Y-122756705D02*
X107225180Y-123090038D01*
X107225180Y-123090038D02*
X107177561Y-123185276D01*
X107177561Y-123185276D02*
X107129942Y-123232895D01*
X107129942Y-123232895D02*
X107034704Y-123280514D01*
X107034704Y-123280514D02*
X106939466Y-123280514D01*
X106939466Y-123280514D02*
X106844228Y-123232895D01*
X106844228Y-123232895D02*
X106796609Y-123185276D01*
X106796609Y-123185276D02*
X106748990Y-123090038D01*
X106748990Y-123090038D02*
X106748990Y-122756705D01*
X106225180Y-124280514D02*
X106225180Y-123709086D01*
X106225180Y-123994800D02*
X107225180Y-123994800D01*
X107225180Y-123994800D02*
X107082323Y-123899562D01*
X107082323Y-123899562D02*
X106987085Y-123804324D01*
X106987085Y-123804324D02*
X106939466Y-123709086D01*
X91248936Y-133326585D02*
X91248936Y-134040870D01*
X91248936Y-134040870D02*
X91201317Y-134183727D01*
X91201317Y-134183727D02*
X91106079Y-134278966D01*
X91106079Y-134278966D02*
X90963222Y-134326585D01*
X90963222Y-134326585D02*
X90867984Y-134326585D01*
X92248936Y-134326585D02*
X91677508Y-134326585D01*
X91963222Y-134326585D02*
X91963222Y-133326585D01*
X91963222Y-133326585D02*
X91867984Y-133469442D01*
X91867984Y-133469442D02*
X91772746Y-133564680D01*
X91772746Y-133564680D02*
X91677508Y-133612299D01*
X93106079Y-133659918D02*
X93106079Y-134326585D01*
X92867984Y-133278966D02*
X92629889Y-133993251D01*
X92629889Y-133993251D02*
X93248936Y-133993251D01*
X74807204Y-140110286D02*
X74807204Y-140824571D01*
X74807204Y-140824571D02*
X74759585Y-140967428D01*
X74759585Y-140967428D02*
X74664347Y-141062667D01*
X74664347Y-141062667D02*
X74521490Y-141110286D01*
X74521490Y-141110286D02*
X74426252Y-141110286D01*
X75331014Y-141110286D02*
X75521490Y-141110286D01*
X75521490Y-141110286D02*
X75616728Y-141062667D01*
X75616728Y-141062667D02*
X75664347Y-141015047D01*
X75664347Y-141015047D02*
X75759585Y-140872190D01*
X75759585Y-140872190D02*
X75807204Y-140681714D01*
X75807204Y-140681714D02*
X75807204Y-140300762D01*
X75807204Y-140300762D02*
X75759585Y-140205524D01*
X75759585Y-140205524D02*
X75711966Y-140157905D01*
X75711966Y-140157905D02*
X75616728Y-140110286D01*
X75616728Y-140110286D02*
X75426252Y-140110286D01*
X75426252Y-140110286D02*
X75331014Y-140157905D01*
X75331014Y-140157905D02*
X75283395Y-140205524D01*
X75283395Y-140205524D02*
X75235776Y-140300762D01*
X75235776Y-140300762D02*
X75235776Y-140538857D01*
X75235776Y-140538857D02*
X75283395Y-140634095D01*
X75283395Y-140634095D02*
X75331014Y-140681714D01*
X75331014Y-140681714D02*
X75426252Y-140729333D01*
X75426252Y-140729333D02*
X75616728Y-140729333D01*
X75616728Y-140729333D02*
X75711966Y-140681714D01*
X75711966Y-140681714D02*
X75759585Y-140634095D01*
X75759585Y-140634095D02*
X75807204Y-140538857D01*
X74355059Y-133318820D02*
X74355059Y-134033105D01*
X74355059Y-134033105D02*
X74307440Y-134175962D01*
X74307440Y-134175962D02*
X74212202Y-134271201D01*
X74212202Y-134271201D02*
X74069345Y-134318820D01*
X74069345Y-134318820D02*
X73974107Y-134318820D01*
X75355059Y-134318820D02*
X74783631Y-134318820D01*
X75069345Y-134318820D02*
X75069345Y-133318820D01*
X75069345Y-133318820D02*
X74974107Y-133461677D01*
X74974107Y-133461677D02*
X74878869Y-133556915D01*
X74878869Y-133556915D02*
X74783631Y-133604534D01*
X76259821Y-133318820D02*
X75783631Y-133318820D01*
X75783631Y-133318820D02*
X75736012Y-133795010D01*
X75736012Y-133795010D02*
X75783631Y-133747391D01*
X75783631Y-133747391D02*
X75878869Y-133699772D01*
X75878869Y-133699772D02*
X76116964Y-133699772D01*
X76116964Y-133699772D02*
X76212202Y-133747391D01*
X76212202Y-133747391D02*
X76259821Y-133795010D01*
X76259821Y-133795010D02*
X76307440Y-133890248D01*
X76307440Y-133890248D02*
X76307440Y-134128343D01*
X76307440Y-134128343D02*
X76259821Y-134223581D01*
X76259821Y-134223581D02*
X76212202Y-134271201D01*
X76212202Y-134271201D02*
X76116964Y-134318820D01*
X76116964Y-134318820D02*
X75878869Y-134318820D01*
X75878869Y-134318820D02*
X75783631Y-134271201D01*
X75783631Y-134271201D02*
X75736012Y-134223581D01*
X135165180Y-82216666D02*
X134450895Y-82216666D01*
X134450895Y-82216666D02*
X134308038Y-82169047D01*
X134308038Y-82169047D02*
X134212800Y-82073809D01*
X134212800Y-82073809D02*
X134165180Y-81930952D01*
X134165180Y-81930952D02*
X134165180Y-81835714D01*
X135069942Y-82645238D02*
X135117561Y-82692857D01*
X135117561Y-82692857D02*
X135165180Y-82788095D01*
X135165180Y-82788095D02*
X135165180Y-83026190D01*
X135165180Y-83026190D02*
X135117561Y-83121428D01*
X135117561Y-83121428D02*
X135069942Y-83169047D01*
X135069942Y-83169047D02*
X134974704Y-83216666D01*
X134974704Y-83216666D02*
X134879466Y-83216666D01*
X134879466Y-83216666D02*
X134736609Y-83169047D01*
X134736609Y-83169047D02*
X134165180Y-82597619D01*
X134165180Y-82597619D02*
X134165180Y-83216666D01*
X132148990Y-123090038D02*
X132101371Y-123232895D01*
X132101371Y-123232895D02*
X132053752Y-123280514D01*
X132053752Y-123280514D02*
X131958514Y-123328133D01*
X131958514Y-123328133D02*
X131815657Y-123328133D01*
X131815657Y-123328133D02*
X131720419Y-123280514D01*
X131720419Y-123280514D02*
X131672800Y-123232895D01*
X131672800Y-123232895D02*
X131625180Y-123137657D01*
X131625180Y-123137657D02*
X131625180Y-122756705D01*
X131625180Y-122756705D02*
X132625180Y-122756705D01*
X132625180Y-122756705D02*
X132625180Y-123090038D01*
X132625180Y-123090038D02*
X132577561Y-123185276D01*
X132577561Y-123185276D02*
X132529942Y-123232895D01*
X132529942Y-123232895D02*
X132434704Y-123280514D01*
X132434704Y-123280514D02*
X132339466Y-123280514D01*
X132339466Y-123280514D02*
X132244228Y-123232895D01*
X132244228Y-123232895D02*
X132196609Y-123185276D01*
X132196609Y-123185276D02*
X132148990Y-123090038D01*
X132148990Y-123090038D02*
X132148990Y-122756705D01*
X131625180Y-124280514D02*
X131625180Y-123709086D01*
X131625180Y-123994800D02*
X132625180Y-123994800D01*
X132625180Y-123994800D02*
X132482323Y-123899562D01*
X132482323Y-123899562D02*
X132387085Y-123804324D01*
X132387085Y-123804324D02*
X132339466Y-123709086D01*
X132148990Y-40724247D02*
X132101371Y-40867104D01*
X132101371Y-40867104D02*
X132053752Y-40914723D01*
X132053752Y-40914723D02*
X131958514Y-40962342D01*
X131958514Y-40962342D02*
X131815657Y-40962342D01*
X131815657Y-40962342D02*
X131720419Y-40914723D01*
X131720419Y-40914723D02*
X131672800Y-40867104D01*
X131672800Y-40867104D02*
X131625180Y-40771866D01*
X131625180Y-40771866D02*
X131625180Y-40390914D01*
X131625180Y-40390914D02*
X132625180Y-40390914D01*
X132625180Y-40390914D02*
X132625180Y-40724247D01*
X132625180Y-40724247D02*
X132577561Y-40819485D01*
X132577561Y-40819485D02*
X132529942Y-40867104D01*
X132529942Y-40867104D02*
X132434704Y-40914723D01*
X132434704Y-40914723D02*
X132339466Y-40914723D01*
X132339466Y-40914723D02*
X132244228Y-40867104D01*
X132244228Y-40867104D02*
X132196609Y-40819485D01*
X132196609Y-40819485D02*
X132148990Y-40724247D01*
X132148990Y-40724247D02*
X132148990Y-40390914D01*
X132625180Y-41295676D02*
X132625180Y-41914723D01*
X132625180Y-41914723D02*
X132244228Y-41581390D01*
X132244228Y-41581390D02*
X132244228Y-41724247D01*
X132244228Y-41724247D02*
X132196609Y-41819485D01*
X132196609Y-41819485D02*
X132148990Y-41867104D01*
X132148990Y-41867104D02*
X132053752Y-41914723D01*
X132053752Y-41914723D02*
X131815657Y-41914723D01*
X131815657Y-41914723D02*
X131720419Y-41867104D01*
X131720419Y-41867104D02*
X131672800Y-41819485D01*
X131672800Y-41819485D02*
X131625180Y-41724247D01*
X131625180Y-41724247D02*
X131625180Y-41438533D01*
X131625180Y-41438533D02*
X131672800Y-41343295D01*
X131672800Y-41343295D02*
X131720419Y-41295676D01*
X132529942Y-42295676D02*
X132577561Y-42343295D01*
X132577561Y-42343295D02*
X132625180Y-42438533D01*
X132625180Y-42438533D02*
X132625180Y-42676628D01*
X132625180Y-42676628D02*
X132577561Y-42771866D01*
X132577561Y-42771866D02*
X132529942Y-42819485D01*
X132529942Y-42819485D02*
X132434704Y-42867104D01*
X132434704Y-42867104D02*
X132339466Y-42867104D01*
X132339466Y-42867104D02*
X132196609Y-42819485D01*
X132196609Y-42819485D02*
X131625180Y-42248057D01*
X131625180Y-42248057D02*
X131625180Y-42867104D01*
X136990895Y-40414724D02*
X136990895Y-40890914D01*
X136705180Y-40319486D02*
X137705180Y-40652819D01*
X137705180Y-40652819D02*
X136705180Y-40986152D01*
X137705180Y-41224248D02*
X137705180Y-41843295D01*
X137705180Y-41843295D02*
X137324228Y-41509962D01*
X137324228Y-41509962D02*
X137324228Y-41652819D01*
X137324228Y-41652819D02*
X137276609Y-41748057D01*
X137276609Y-41748057D02*
X137228990Y-41795676D01*
X137228990Y-41795676D02*
X137133752Y-41843295D01*
X137133752Y-41843295D02*
X136895657Y-41843295D01*
X136895657Y-41843295D02*
X136800419Y-41795676D01*
X136800419Y-41795676D02*
X136752800Y-41748057D01*
X136752800Y-41748057D02*
X136705180Y-41652819D01*
X136705180Y-41652819D02*
X136705180Y-41367105D01*
X136705180Y-41367105D02*
X136752800Y-41271867D01*
X136752800Y-41271867D02*
X136800419Y-41224248D01*
X137609942Y-42224248D02*
X137657561Y-42271867D01*
X137657561Y-42271867D02*
X137705180Y-42367105D01*
X137705180Y-42367105D02*
X137705180Y-42605200D01*
X137705180Y-42605200D02*
X137657561Y-42700438D01*
X137657561Y-42700438D02*
X137609942Y-42748057D01*
X137609942Y-42748057D02*
X137514704Y-42795676D01*
X137514704Y-42795676D02*
X137419466Y-42795676D01*
X137419466Y-42795676D02*
X137276609Y-42748057D01*
X137276609Y-42748057D02*
X136705180Y-42176629D01*
X136705180Y-42176629D02*
X136705180Y-42795676D01*
X136990895Y-122780514D02*
X136990895Y-123256704D01*
X136705180Y-122685276D02*
X137705180Y-123018609D01*
X137705180Y-123018609D02*
X136705180Y-123351942D01*
X136705180Y-124209085D02*
X136705180Y-123637657D01*
X136705180Y-123923371D02*
X137705180Y-123923371D01*
X137705180Y-123923371D02*
X137562323Y-123828133D01*
X137562323Y-123828133D02*
X137467085Y-123732895D01*
X137467085Y-123732895D02*
X137419466Y-123637657D01*
X160565180Y-82216666D02*
X159850895Y-82216666D01*
X159850895Y-82216666D02*
X159708038Y-82169047D01*
X159708038Y-82169047D02*
X159612800Y-82073809D01*
X159612800Y-82073809D02*
X159565180Y-81930952D01*
X159565180Y-81930952D02*
X159565180Y-81835714D01*
X159565180Y-83216666D02*
X159565180Y-82645238D01*
X159565180Y-82930952D02*
X160565180Y-82930952D01*
X160565180Y-82930952D02*
X160422323Y-82835714D01*
X160422323Y-82835714D02*
X160327085Y-82740476D01*
X160327085Y-82740476D02*
X160279466Y-82645238D01*
X157548990Y-40724247D02*
X157501371Y-40867104D01*
X157501371Y-40867104D02*
X157453752Y-40914723D01*
X157453752Y-40914723D02*
X157358514Y-40962342D01*
X157358514Y-40962342D02*
X157215657Y-40962342D01*
X157215657Y-40962342D02*
X157120419Y-40914723D01*
X157120419Y-40914723D02*
X157072800Y-40867104D01*
X157072800Y-40867104D02*
X157025180Y-40771866D01*
X157025180Y-40771866D02*
X157025180Y-40390914D01*
X157025180Y-40390914D02*
X158025180Y-40390914D01*
X158025180Y-40390914D02*
X158025180Y-40724247D01*
X158025180Y-40724247D02*
X157977561Y-40819485D01*
X157977561Y-40819485D02*
X157929942Y-40867104D01*
X157929942Y-40867104D02*
X157834704Y-40914723D01*
X157834704Y-40914723D02*
X157739466Y-40914723D01*
X157739466Y-40914723D02*
X157644228Y-40867104D01*
X157644228Y-40867104D02*
X157596609Y-40819485D01*
X157596609Y-40819485D02*
X157548990Y-40724247D01*
X157548990Y-40724247D02*
X157548990Y-40390914D01*
X158025180Y-41295676D02*
X158025180Y-41914723D01*
X158025180Y-41914723D02*
X157644228Y-41581390D01*
X157644228Y-41581390D02*
X157644228Y-41724247D01*
X157644228Y-41724247D02*
X157596609Y-41819485D01*
X157596609Y-41819485D02*
X157548990Y-41867104D01*
X157548990Y-41867104D02*
X157453752Y-41914723D01*
X157453752Y-41914723D02*
X157215657Y-41914723D01*
X157215657Y-41914723D02*
X157120419Y-41867104D01*
X157120419Y-41867104D02*
X157072800Y-41819485D01*
X157072800Y-41819485D02*
X157025180Y-41724247D01*
X157025180Y-41724247D02*
X157025180Y-41438533D01*
X157025180Y-41438533D02*
X157072800Y-41343295D01*
X157072800Y-41343295D02*
X157120419Y-41295676D01*
X157929942Y-42295676D02*
X157977561Y-42343295D01*
X157977561Y-42343295D02*
X158025180Y-42438533D01*
X158025180Y-42438533D02*
X158025180Y-42676628D01*
X158025180Y-42676628D02*
X157977561Y-42771866D01*
X157977561Y-42771866D02*
X157929942Y-42819485D01*
X157929942Y-42819485D02*
X157834704Y-42867104D01*
X157834704Y-42867104D02*
X157739466Y-42867104D01*
X157739466Y-42867104D02*
X157596609Y-42819485D01*
X157596609Y-42819485D02*
X157025180Y-42248057D01*
X157025180Y-42248057D02*
X157025180Y-42867104D01*
X157548990Y-123090038D02*
X157501371Y-123232895D01*
X157501371Y-123232895D02*
X157453752Y-123280514D01*
X157453752Y-123280514D02*
X157358514Y-123328133D01*
X157358514Y-123328133D02*
X157215657Y-123328133D01*
X157215657Y-123328133D02*
X157120419Y-123280514D01*
X157120419Y-123280514D02*
X157072800Y-123232895D01*
X157072800Y-123232895D02*
X157025180Y-123137657D01*
X157025180Y-123137657D02*
X157025180Y-122756705D01*
X157025180Y-122756705D02*
X158025180Y-122756705D01*
X158025180Y-122756705D02*
X158025180Y-123090038D01*
X158025180Y-123090038D02*
X157977561Y-123185276D01*
X157977561Y-123185276D02*
X157929942Y-123232895D01*
X157929942Y-123232895D02*
X157834704Y-123280514D01*
X157834704Y-123280514D02*
X157739466Y-123280514D01*
X157739466Y-123280514D02*
X157644228Y-123232895D01*
X157644228Y-123232895D02*
X157596609Y-123185276D01*
X157596609Y-123185276D02*
X157548990Y-123090038D01*
X157548990Y-123090038D02*
X157548990Y-122756705D01*
X157025180Y-124280514D02*
X157025180Y-123709086D01*
X157025180Y-123994800D02*
X158025180Y-123994800D01*
X158025180Y-123994800D02*
X157882323Y-123899562D01*
X157882323Y-123899562D02*
X157787085Y-123804324D01*
X157787085Y-123804324D02*
X157739466Y-123709086D01*
X162390895Y-122780514D02*
X162390895Y-123256704D01*
X162105180Y-122685276D02*
X163105180Y-123018609D01*
X163105180Y-123018609D02*
X162105180Y-123351942D01*
X162105180Y-124209085D02*
X162105180Y-123637657D01*
X162105180Y-123923371D02*
X163105180Y-123923371D01*
X163105180Y-123923371D02*
X162962323Y-123828133D01*
X162962323Y-123828133D02*
X162867085Y-123732895D01*
X162867085Y-123732895D02*
X162819466Y-123637657D01*
X162390895Y-40414724D02*
X162390895Y-40890914D01*
X162105180Y-40319486D02*
X163105180Y-40652819D01*
X163105180Y-40652819D02*
X162105180Y-40986152D01*
X163105180Y-41224248D02*
X163105180Y-41843295D01*
X163105180Y-41843295D02*
X162724228Y-41509962D01*
X162724228Y-41509962D02*
X162724228Y-41652819D01*
X162724228Y-41652819D02*
X162676609Y-41748057D01*
X162676609Y-41748057D02*
X162628990Y-41795676D01*
X162628990Y-41795676D02*
X162533752Y-41843295D01*
X162533752Y-41843295D02*
X162295657Y-41843295D01*
X162295657Y-41843295D02*
X162200419Y-41795676D01*
X162200419Y-41795676D02*
X162152800Y-41748057D01*
X162152800Y-41748057D02*
X162105180Y-41652819D01*
X162105180Y-41652819D02*
X162105180Y-41367105D01*
X162105180Y-41367105D02*
X162152800Y-41271867D01*
X162152800Y-41271867D02*
X162200419Y-41224248D01*
X163009942Y-42224248D02*
X163057561Y-42271867D01*
X163057561Y-42271867D02*
X163105180Y-42367105D01*
X163105180Y-42367105D02*
X163105180Y-42605200D01*
X163105180Y-42605200D02*
X163057561Y-42700438D01*
X163057561Y-42700438D02*
X163009942Y-42748057D01*
X163009942Y-42748057D02*
X162914704Y-42795676D01*
X162914704Y-42795676D02*
X162819466Y-42795676D01*
X162819466Y-42795676D02*
X162676609Y-42748057D01*
X162676609Y-42748057D02*
X162105180Y-42176629D01*
X162105180Y-42176629D02*
X162105180Y-42795676D01*
X162258476Y-31278819D02*
X162258476Y-31993104D01*
X162258476Y-31993104D02*
X162210857Y-32135961D01*
X162210857Y-32135961D02*
X162115619Y-32231200D01*
X162115619Y-32231200D02*
X161972762Y-32278819D01*
X161972762Y-32278819D02*
X161877524Y-32278819D01*
X163258476Y-32278819D02*
X162687048Y-32278819D01*
X162972762Y-32278819D02*
X162972762Y-31278819D01*
X162972762Y-31278819D02*
X162877524Y-31421676D01*
X162877524Y-31421676D02*
X162782286Y-31516914D01*
X162782286Y-31516914D02*
X162687048Y-31564533D01*
X163877524Y-31278819D02*
X163972762Y-31278819D01*
X163972762Y-31278819D02*
X164068000Y-31326438D01*
X164068000Y-31326438D02*
X164115619Y-31374057D01*
X164115619Y-31374057D02*
X164163238Y-31469295D01*
X164163238Y-31469295D02*
X164210857Y-31659771D01*
X164210857Y-31659771D02*
X164210857Y-31897866D01*
X164210857Y-31897866D02*
X164163238Y-32088342D01*
X164163238Y-32088342D02*
X164115619Y-32183580D01*
X164115619Y-32183580D02*
X164068000Y-32231200D01*
X164068000Y-32231200D02*
X163972762Y-32278819D01*
X163972762Y-32278819D02*
X163877524Y-32278819D01*
X163877524Y-32278819D02*
X163782286Y-32231200D01*
X163782286Y-32231200D02*
X163734667Y-32183580D01*
X163734667Y-32183580D02*
X163687048Y-32088342D01*
X163687048Y-32088342D02*
X163639429Y-31897866D01*
X163639429Y-31897866D02*
X163639429Y-31659771D01*
X163639429Y-31659771D02*
X163687048Y-31469295D01*
X163687048Y-31469295D02*
X163734667Y-31374057D01*
X163734667Y-31374057D02*
X163782286Y-31326438D01*
X163782286Y-31326438D02*
X163877524Y-31278819D01*
X122380476Y-133724819D02*
X122380476Y-134439104D01*
X122380476Y-134439104D02*
X122332857Y-134581961D01*
X122332857Y-134581961D02*
X122237619Y-134677200D01*
X122237619Y-134677200D02*
X122094762Y-134724819D01*
X122094762Y-134724819D02*
X121999524Y-134724819D01*
X123380476Y-134724819D02*
X122809048Y-134724819D01*
X123094762Y-134724819D02*
X123094762Y-133724819D01*
X123094762Y-133724819D02*
X122999524Y-133867676D01*
X122999524Y-133867676D02*
X122904286Y-133962914D01*
X122904286Y-133962914D02*
X122809048Y-134010533D01*
X123761429Y-133820057D02*
X123809048Y-133772438D01*
X123809048Y-133772438D02*
X123904286Y-133724819D01*
X123904286Y-133724819D02*
X124142381Y-133724819D01*
X124142381Y-133724819D02*
X124237619Y-133772438D01*
X124237619Y-133772438D02*
X124285238Y-133820057D01*
X124285238Y-133820057D02*
X124332857Y-133915295D01*
X124332857Y-133915295D02*
X124332857Y-134010533D01*
X124332857Y-134010533D02*
X124285238Y-134153390D01*
X124285238Y-134153390D02*
X123713810Y-134724819D01*
X123713810Y-134724819D02*
X124332857Y-134724819D01*
X84365180Y-82216666D02*
X83650895Y-82216666D01*
X83650895Y-82216666D02*
X83508038Y-82169047D01*
X83508038Y-82169047D02*
X83412800Y-82073809D01*
X83412800Y-82073809D02*
X83365180Y-81930952D01*
X83365180Y-81930952D02*
X83365180Y-81835714D01*
X84031847Y-83121428D02*
X83365180Y-83121428D01*
X84412800Y-82883333D02*
X83698514Y-82645238D01*
X83698514Y-82645238D02*
X83698514Y-83264285D01*
X86190895Y-40414724D02*
X86190895Y-40890914D01*
X85905180Y-40319486D02*
X86905180Y-40652819D01*
X86905180Y-40652819D02*
X85905180Y-40986152D01*
X86905180Y-41224248D02*
X86905180Y-41843295D01*
X86905180Y-41843295D02*
X86524228Y-41509962D01*
X86524228Y-41509962D02*
X86524228Y-41652819D01*
X86524228Y-41652819D02*
X86476609Y-41748057D01*
X86476609Y-41748057D02*
X86428990Y-41795676D01*
X86428990Y-41795676D02*
X86333752Y-41843295D01*
X86333752Y-41843295D02*
X86095657Y-41843295D01*
X86095657Y-41843295D02*
X86000419Y-41795676D01*
X86000419Y-41795676D02*
X85952800Y-41748057D01*
X85952800Y-41748057D02*
X85905180Y-41652819D01*
X85905180Y-41652819D02*
X85905180Y-41367105D01*
X85905180Y-41367105D02*
X85952800Y-41271867D01*
X85952800Y-41271867D02*
X86000419Y-41224248D01*
X86809942Y-42224248D02*
X86857561Y-42271867D01*
X86857561Y-42271867D02*
X86905180Y-42367105D01*
X86905180Y-42367105D02*
X86905180Y-42605200D01*
X86905180Y-42605200D02*
X86857561Y-42700438D01*
X86857561Y-42700438D02*
X86809942Y-42748057D01*
X86809942Y-42748057D02*
X86714704Y-42795676D01*
X86714704Y-42795676D02*
X86619466Y-42795676D01*
X86619466Y-42795676D02*
X86476609Y-42748057D01*
X86476609Y-42748057D02*
X85905180Y-42176629D01*
X85905180Y-42176629D02*
X85905180Y-42795676D01*
X86190895Y-122780514D02*
X86190895Y-123256704D01*
X85905180Y-122685276D02*
X86905180Y-123018609D01*
X86905180Y-123018609D02*
X85905180Y-123351942D01*
X85905180Y-124209085D02*
X85905180Y-123637657D01*
X85905180Y-123923371D02*
X86905180Y-123923371D01*
X86905180Y-123923371D02*
X86762323Y-123828133D01*
X86762323Y-123828133D02*
X86667085Y-123732895D01*
X86667085Y-123732895D02*
X86619466Y-123637657D01*
X81348990Y-123090038D02*
X81301371Y-123232895D01*
X81301371Y-123232895D02*
X81253752Y-123280514D01*
X81253752Y-123280514D02*
X81158514Y-123328133D01*
X81158514Y-123328133D02*
X81015657Y-123328133D01*
X81015657Y-123328133D02*
X80920419Y-123280514D01*
X80920419Y-123280514D02*
X80872800Y-123232895D01*
X80872800Y-123232895D02*
X80825180Y-123137657D01*
X80825180Y-123137657D02*
X80825180Y-122756705D01*
X80825180Y-122756705D02*
X81825180Y-122756705D01*
X81825180Y-122756705D02*
X81825180Y-123090038D01*
X81825180Y-123090038D02*
X81777561Y-123185276D01*
X81777561Y-123185276D02*
X81729942Y-123232895D01*
X81729942Y-123232895D02*
X81634704Y-123280514D01*
X81634704Y-123280514D02*
X81539466Y-123280514D01*
X81539466Y-123280514D02*
X81444228Y-123232895D01*
X81444228Y-123232895D02*
X81396609Y-123185276D01*
X81396609Y-123185276D02*
X81348990Y-123090038D01*
X81348990Y-123090038D02*
X81348990Y-122756705D01*
X80825180Y-124280514D02*
X80825180Y-123709086D01*
X80825180Y-123994800D02*
X81825180Y-123994800D01*
X81825180Y-123994800D02*
X81682323Y-123899562D01*
X81682323Y-123899562D02*
X81587085Y-123804324D01*
X81587085Y-123804324D02*
X81539466Y-123709086D01*
X81348990Y-40724247D02*
X81301371Y-40867104D01*
X81301371Y-40867104D02*
X81253752Y-40914723D01*
X81253752Y-40914723D02*
X81158514Y-40962342D01*
X81158514Y-40962342D02*
X81015657Y-40962342D01*
X81015657Y-40962342D02*
X80920419Y-40914723D01*
X80920419Y-40914723D02*
X80872800Y-40867104D01*
X80872800Y-40867104D02*
X80825180Y-40771866D01*
X80825180Y-40771866D02*
X80825180Y-40390914D01*
X80825180Y-40390914D02*
X81825180Y-40390914D01*
X81825180Y-40390914D02*
X81825180Y-40724247D01*
X81825180Y-40724247D02*
X81777561Y-40819485D01*
X81777561Y-40819485D02*
X81729942Y-40867104D01*
X81729942Y-40867104D02*
X81634704Y-40914723D01*
X81634704Y-40914723D02*
X81539466Y-40914723D01*
X81539466Y-40914723D02*
X81444228Y-40867104D01*
X81444228Y-40867104D02*
X81396609Y-40819485D01*
X81396609Y-40819485D02*
X81348990Y-40724247D01*
X81348990Y-40724247D02*
X81348990Y-40390914D01*
X81825180Y-41295676D02*
X81825180Y-41914723D01*
X81825180Y-41914723D02*
X81444228Y-41581390D01*
X81444228Y-41581390D02*
X81444228Y-41724247D01*
X81444228Y-41724247D02*
X81396609Y-41819485D01*
X81396609Y-41819485D02*
X81348990Y-41867104D01*
X81348990Y-41867104D02*
X81253752Y-41914723D01*
X81253752Y-41914723D02*
X81015657Y-41914723D01*
X81015657Y-41914723D02*
X80920419Y-41867104D01*
X80920419Y-41867104D02*
X80872800Y-41819485D01*
X80872800Y-41819485D02*
X80825180Y-41724247D01*
X80825180Y-41724247D02*
X80825180Y-41438533D01*
X80825180Y-41438533D02*
X80872800Y-41343295D01*
X80872800Y-41343295D02*
X80920419Y-41295676D01*
X81729942Y-42295676D02*
X81777561Y-42343295D01*
X81777561Y-42343295D02*
X81825180Y-42438533D01*
X81825180Y-42438533D02*
X81825180Y-42676628D01*
X81825180Y-42676628D02*
X81777561Y-42771866D01*
X81777561Y-42771866D02*
X81729942Y-42819485D01*
X81729942Y-42819485D02*
X81634704Y-42867104D01*
X81634704Y-42867104D02*
X81539466Y-42867104D01*
X81539466Y-42867104D02*
X81396609Y-42819485D01*
X81396609Y-42819485D02*
X80825180Y-42248057D01*
X80825180Y-42248057D02*
X80825180Y-42867104D01*
D12*
%TO.C,J6*%
X151358600Y-135178800D02*
X151358600Y-146710400D01*
X151358600Y-135178800D02*
X172440600Y-135178800D01*
X172440600Y-135178800D02*
X172440600Y-146710400D01*
X172440600Y-146710400D02*
X151358600Y-146710400D01*
D13*
%TO.C,J11*%
X80139328Y-134667073D02*
X80139328Y-135917073D01*
X80439328Y-134967073D02*
X80439328Y-139687073D01*
X80439328Y-136277073D02*
X81049328Y-136277073D01*
X80439328Y-137577073D02*
X81049328Y-137577073D01*
X80439328Y-139687073D02*
X86559328Y-139687073D01*
X81049328Y-135577073D02*
X81049328Y-139077073D01*
X81049328Y-139077073D02*
X85949328Y-139077073D01*
X81389328Y-134667073D02*
X80139328Y-134667073D01*
X81899328Y-134767073D02*
X81899328Y-134967073D01*
X82199328Y-134767073D02*
X81899328Y-134767073D01*
X82199328Y-134867073D02*
X81899328Y-134867073D01*
X82199328Y-134967073D02*
X82199328Y-134767073D01*
X82999328Y-134967073D02*
X82999328Y-135577073D01*
X82999328Y-135577073D02*
X81049328Y-135577073D01*
X83399328Y-138577073D02*
X83599328Y-138577073D01*
X83399328Y-139077073D02*
X83399328Y-138577073D01*
X83499328Y-139077073D02*
X83499328Y-138577073D01*
X83599328Y-138577073D02*
X83599328Y-139077073D01*
X83999328Y-135577073D02*
X83999328Y-134967073D01*
X85949328Y-135577073D02*
X83999328Y-135577073D01*
X85949328Y-139077073D02*
X85949328Y-135577073D01*
X86559328Y-134967073D02*
X80439328Y-134967073D01*
X86559328Y-136277073D02*
X85949328Y-136277073D01*
X86559328Y-137577073D02*
X85949328Y-137577073D01*
X86559328Y-139687073D02*
X86559328Y-134967073D01*
D14*
%TO.C,J5*%
X82420020Y-142243261D02*
X82420020Y-145443262D01*
X82420020Y-145443262D02*
X94169997Y-145443262D01*
X92035000Y-141227261D02*
X92670000Y-141989261D01*
X92670000Y-141989261D02*
X93305000Y-141227261D01*
X93305000Y-141227261D02*
X92035000Y-141227261D01*
X94169997Y-142243261D02*
X82420020Y-142243261D01*
X94169997Y-145443262D02*
X94169997Y-142243261D01*
D13*
%TO.C,J13*%
X149310000Y-26846000D02*
X149310000Y-28096000D01*
X149610000Y-27146000D02*
X149610000Y-31866000D01*
X149610000Y-28456000D02*
X150220000Y-28456000D01*
X149610000Y-29756000D02*
X150220000Y-29756000D01*
X149610000Y-31866000D02*
X155730000Y-31866000D01*
X150220000Y-27756000D02*
X150220000Y-31256000D01*
X150220000Y-31256000D02*
X155120000Y-31256000D01*
X150560000Y-26846000D02*
X149310000Y-26846000D01*
X151070000Y-26946000D02*
X151070000Y-27146000D01*
X151370000Y-26946000D02*
X151070000Y-26946000D01*
X151370000Y-27046000D02*
X151070000Y-27046000D01*
X151370000Y-27146000D02*
X151370000Y-26946000D01*
X152170000Y-27146000D02*
X152170000Y-27756000D01*
X152170000Y-27756000D02*
X150220000Y-27756000D01*
X152570000Y-30756000D02*
X152770000Y-30756000D01*
X152570000Y-31256000D02*
X152570000Y-30756000D01*
X152670000Y-31256000D02*
X152670000Y-30756000D01*
X152770000Y-30756000D02*
X152770000Y-31256000D01*
X153170000Y-27756000D02*
X153170000Y-27146000D01*
X155120000Y-27756000D02*
X153170000Y-27756000D01*
X155120000Y-31256000D02*
X155120000Y-27756000D01*
X155730000Y-27146000D02*
X149610000Y-27146000D01*
X155730000Y-28456000D02*
X155120000Y-28456000D01*
X155730000Y-29756000D02*
X155120000Y-29756000D01*
X155730000Y-31866000D02*
X155730000Y-27146000D01*
D14*
%TO.C,J7*%
X72300020Y-28059999D02*
X72300020Y-31260000D01*
X72300020Y-31260000D02*
X84049997Y-31260000D01*
X81915000Y-27043999D02*
X82550000Y-27805999D01*
X82550000Y-27805999D02*
X83185000Y-27043999D01*
X83185000Y-27043999D02*
X81915000Y-27043999D01*
X84049997Y-28059999D02*
X72300020Y-28059999D01*
X84049997Y-31260000D02*
X84049997Y-28059999D01*
D15*
%TO.C,J3*%
X114909600Y-34925000D02*
X103555800Y-34925000D01*
X103555800Y-34925000D02*
X103555800Y-130175000D01*
X114909600Y-130175000D02*
X114909600Y-34925000D01*
X103555800Y-130175000D02*
X114909600Y-130175000D01*
D16*
X112141000Y-130810000D02*
G75*
G03*
X112141000Y-130810000I-381000J0D01*
G01*
D13*
%TO.C,J14*%
X88698460Y-134661766D02*
X88698460Y-135911766D01*
X88998460Y-134961766D02*
X88998460Y-139681766D01*
X88998460Y-136271766D02*
X89608460Y-136271766D01*
X88998460Y-137571766D02*
X89608460Y-137571766D01*
X88998460Y-139681766D02*
X95118460Y-139681766D01*
X89608460Y-135571766D02*
X89608460Y-139071766D01*
X89608460Y-139071766D02*
X94508460Y-139071766D01*
X89948460Y-134661766D02*
X88698460Y-134661766D01*
X90458460Y-134761766D02*
X90458460Y-134961766D01*
X90758460Y-134761766D02*
X90458460Y-134761766D01*
X90758460Y-134861766D02*
X90458460Y-134861766D01*
X90758460Y-134961766D02*
X90758460Y-134761766D01*
X91558460Y-134961766D02*
X91558460Y-135571766D01*
X91558460Y-135571766D02*
X89608460Y-135571766D01*
X91958460Y-138571766D02*
X92158460Y-138571766D01*
X91958460Y-139071766D02*
X91958460Y-138571766D01*
X92058460Y-139071766D02*
X92058460Y-138571766D01*
X92158460Y-138571766D02*
X92158460Y-139071766D01*
X92558460Y-135571766D02*
X92558460Y-134961766D01*
X94508460Y-135571766D02*
X92558460Y-135571766D01*
X94508460Y-139071766D02*
X94508460Y-135571766D01*
X95118460Y-134961766D02*
X88998460Y-134961766D01*
X95118460Y-136271766D02*
X94508460Y-136271766D01*
X95118460Y-137571766D02*
X94508460Y-137571766D01*
X95118460Y-139681766D02*
X95118460Y-134961766D01*
%TO.C,J9*%
X71780538Y-141445467D02*
X71780538Y-142695467D01*
X72080538Y-141745467D02*
X72080538Y-146465467D01*
X72080538Y-143055467D02*
X72690538Y-143055467D01*
X72080538Y-144355467D02*
X72690538Y-144355467D01*
X72080538Y-146465467D02*
X78200538Y-146465467D01*
X72690538Y-142355467D02*
X72690538Y-145855467D01*
X72690538Y-145855467D02*
X77590538Y-145855467D01*
X73030538Y-141445467D02*
X71780538Y-141445467D01*
X73540538Y-141545467D02*
X73540538Y-141745467D01*
X73840538Y-141545467D02*
X73540538Y-141545467D01*
X73840538Y-141645467D02*
X73540538Y-141645467D01*
X73840538Y-141745467D02*
X73840538Y-141545467D01*
X74640538Y-141745467D02*
X74640538Y-142355467D01*
X74640538Y-142355467D02*
X72690538Y-142355467D01*
X75040538Y-145355467D02*
X75240538Y-145355467D01*
X75040538Y-145855467D02*
X75040538Y-145355467D01*
X75140538Y-145855467D02*
X75140538Y-145355467D01*
X75240538Y-145355467D02*
X75240538Y-145855467D01*
X75640538Y-142355467D02*
X75640538Y-141745467D01*
X77590538Y-142355467D02*
X75640538Y-142355467D01*
X77590538Y-145855467D02*
X77590538Y-142355467D01*
X78200538Y-141745467D02*
X72080538Y-141745467D01*
X78200538Y-143055467D02*
X77590538Y-143055467D01*
X78200538Y-144355467D02*
X77590538Y-144355467D01*
X78200538Y-146465467D02*
X78200538Y-141745467D01*
%TO.C,J15*%
X71804583Y-134654001D02*
X71804583Y-135904001D01*
X72104583Y-134954001D02*
X72104583Y-139674001D01*
X72104583Y-136264001D02*
X72714583Y-136264001D01*
X72104583Y-137564001D02*
X72714583Y-137564001D01*
X72104583Y-139674001D02*
X78224583Y-139674001D01*
X72714583Y-135564001D02*
X72714583Y-139064001D01*
X72714583Y-139064001D02*
X77614583Y-139064001D01*
X73054583Y-134654001D02*
X71804583Y-134654001D01*
X73564583Y-134754001D02*
X73564583Y-134954001D01*
X73864583Y-134754001D02*
X73564583Y-134754001D01*
X73864583Y-134854001D02*
X73564583Y-134854001D01*
X73864583Y-134954001D02*
X73864583Y-134754001D01*
X74664583Y-134954001D02*
X74664583Y-135564001D01*
X74664583Y-135564001D02*
X72714583Y-135564001D01*
X75064583Y-138564001D02*
X75264583Y-138564001D01*
X75064583Y-139064001D02*
X75064583Y-138564001D01*
X75164583Y-139064001D02*
X75164583Y-138564001D01*
X75264583Y-138564001D02*
X75264583Y-139064001D01*
X75664583Y-135564001D02*
X75664583Y-134954001D01*
X77614583Y-135564001D02*
X75664583Y-135564001D01*
X77614583Y-139064001D02*
X77614583Y-135564001D01*
X78224583Y-134954001D02*
X72104583Y-134954001D01*
X78224583Y-136264001D02*
X77614583Y-136264001D01*
X78224583Y-137564001D02*
X77614583Y-137564001D01*
X78224583Y-139674001D02*
X78224583Y-134954001D01*
D15*
%TO.C,J2*%
X140309600Y-34925000D02*
X128955800Y-34925000D01*
X128955800Y-34925000D02*
X128955800Y-130175000D01*
X140309600Y-130175000D02*
X140309600Y-34925000D01*
X128955800Y-130175000D02*
X140309600Y-130175000D01*
D16*
X137541000Y-130810000D02*
G75*
G03*
X137541000Y-130810000I-381000J0D01*
G01*
D15*
%TO.C,J1*%
X165709600Y-34925000D02*
X154355800Y-34925000D01*
X154355800Y-34925000D02*
X154355800Y-130175000D01*
X165709600Y-130175000D02*
X165709600Y-34925000D01*
X154355800Y-130175000D02*
X165709600Y-130175000D01*
D16*
X162941000Y-130810000D02*
G75*
G03*
X162941000Y-130810000I-381000J0D01*
G01*
D13*
%TO.C,J10*%
X159708000Y-26804000D02*
X159708000Y-28054000D01*
X160008000Y-27104000D02*
X160008000Y-31824000D01*
X160008000Y-28414000D02*
X160618000Y-28414000D01*
X160008000Y-29714000D02*
X160618000Y-29714000D01*
X160008000Y-31824000D02*
X166128000Y-31824000D01*
X160618000Y-27714000D02*
X160618000Y-31214000D01*
X160618000Y-31214000D02*
X165518000Y-31214000D01*
X160958000Y-26804000D02*
X159708000Y-26804000D01*
X161468000Y-26904000D02*
X161468000Y-27104000D01*
X161768000Y-26904000D02*
X161468000Y-26904000D01*
X161768000Y-27004000D02*
X161468000Y-27004000D01*
X161768000Y-27104000D02*
X161768000Y-26904000D01*
X162568000Y-27104000D02*
X162568000Y-27714000D01*
X162568000Y-27714000D02*
X160618000Y-27714000D01*
X162968000Y-30714000D02*
X163168000Y-30714000D01*
X162968000Y-31214000D02*
X162968000Y-30714000D01*
X163068000Y-31214000D02*
X163068000Y-30714000D01*
X163168000Y-30714000D02*
X163168000Y-31214000D01*
X163568000Y-27714000D02*
X163568000Y-27104000D01*
X165518000Y-27714000D02*
X163568000Y-27714000D01*
X165518000Y-31214000D02*
X165518000Y-27714000D01*
X166128000Y-27104000D02*
X160008000Y-27104000D01*
X166128000Y-28414000D02*
X165518000Y-28414000D01*
X166128000Y-29714000D02*
X165518000Y-29714000D01*
X166128000Y-31824000D02*
X166128000Y-27104000D01*
%TO.C,J12*%
X97040000Y-135120000D02*
X97040000Y-137970000D01*
X97280000Y-135360000D02*
X97280000Y-145180000D01*
X97280000Y-145180000D02*
X121380000Y-145180000D01*
X99890000Y-135120000D02*
X97040000Y-135120000D01*
X121380000Y-145180000D02*
X121380000Y-146580000D01*
X121380000Y-146580000D02*
X123190000Y-146580000D01*
X123190000Y-135360000D02*
X97280000Y-135360000D01*
X123190000Y-135360000D02*
X149100000Y-135360000D01*
X125000000Y-145180000D02*
X125000000Y-146580000D01*
X125000000Y-146580000D02*
X123190000Y-146580000D01*
X149100000Y-135360000D02*
X149100000Y-145180000D01*
X149100000Y-145180000D02*
X125000000Y-145180000D01*
D14*
%TO.C,J8*%
X87560020Y-28059999D02*
X87560020Y-31260000D01*
X87560020Y-31260000D02*
X99309997Y-31260000D01*
X97175000Y-27043999D02*
X97810000Y-27805999D01*
X97810000Y-27805999D02*
X98445000Y-27043999D01*
X98445000Y-27043999D02*
X97175000Y-27043999D01*
X99309997Y-28059999D02*
X87560020Y-28059999D01*
X99309997Y-31260000D02*
X99309997Y-28059999D01*
D15*
%TO.C,J4*%
X89509600Y-34925000D02*
X78155800Y-34925000D01*
X78155800Y-34925000D02*
X78155800Y-130175000D01*
X89509600Y-130175000D02*
X89509600Y-34925000D01*
X78155800Y-130175000D02*
X89509600Y-130175000D01*
D16*
X86741000Y-130810000D02*
G75*
G03*
X86741000Y-130810000I-381000J0D01*
G01*
%TD*%
M02*
