%TF.GenerationSoftware,KiCad,Pcbnew,7.0.7*%
%TF.CreationDate,2024-06-20T17:34:36-04:00*%
%TF.ProjectId,Thruster_Control_Card,54687275-7374-4657-925f-436f6e74726f,rev?*%
%TF.SameCoordinates,Original*%
%TF.FileFunction,Soldermask,Top*%
%TF.FilePolarity,Negative*%
%FSLAX46Y46*%
G04 Gerber Fmt 4.6, Leading zero omitted, Abs format (unit mm)*
G04 Created by KiCad (PCBNEW 7.0.7) date 2024-06-20 17:34:36*
%MOMM*%
%LPD*%
G01*
G04 APERTURE LIST*
G04 Aperture macros list*
%AMRoundRect*
0 Rectangle with rounded corners*
0 $1 Rounding radius*
0 $2 $3 $4 $5 $6 $7 $8 $9 X,Y pos of 4 corners*
0 Add a 4 corners polygon primitive as box body*
4,1,4,$2,$3,$4,$5,$6,$7,$8,$9,$2,$3,0*
0 Add four circle primitives for the rounded corners*
1,1,$1+$1,$2,$3*
1,1,$1+$1,$4,$5*
1,1,$1+$1,$6,$7*
1,1,$1+$1,$8,$9*
0 Add four rect primitives between the rounded corners*
20,1,$1+$1,$2,$3,$4,$5,0*
20,1,$1+$1,$4,$5,$6,$7,0*
20,1,$1+$1,$6,$7,$8,$9,0*
20,1,$1+$1,$8,$9,$2,$3,0*%
%AMFreePoly0*
4,1,6,1.000000,0.000000,0.500000,-0.750000,-0.500000,-0.750000,-0.500000,0.750000,0.500000,0.750000,1.000000,0.000000,1.000000,0.000000,$1*%
%AMFreePoly1*
4,1,6,0.500000,-0.750000,-0.650000,-0.750000,-0.150000,0.000000,-0.650000,0.750000,0.500000,0.750000,0.500000,-0.750000,0.500000,-0.750000,$1*%
G04 Aperture macros list end*
%ADD10RoundRect,0.250000X0.450000X-0.350000X0.450000X0.350000X-0.450000X0.350000X-0.450000X-0.350000X0*%
%ADD11RoundRect,0.100000X-0.637500X-0.100000X0.637500X-0.100000X0.637500X0.100000X-0.637500X0.100000X0*%
%ADD12R,0.800000X1.900000*%
%ADD13FreePoly0,180.000000*%
%ADD14FreePoly1,180.000000*%
%ADD15R,1.605000X1.605000*%
%ADD16C,1.605000*%
%ADD17C,4.335000*%
%ADD18RoundRect,0.250000X-0.450000X0.350000X-0.450000X-0.350000X0.450000X-0.350000X0.450000X0.350000X0*%
%ADD19C,1.500000*%
%ADD20R,1.070000X1.800000*%
%ADD21O,1.070000X1.800000*%
%ADD22RoundRect,0.250000X0.475000X-0.337500X0.475000X0.337500X-0.475000X0.337500X-0.475000X-0.337500X0*%
%ADD23RoundRect,0.250000X-0.350000X-0.450000X0.350000X-0.450000X0.350000X0.450000X-0.350000X0.450000X0*%
G04 APERTURE END LIST*
D10*
%TO.C,R5*%
X161900000Y-94700000D03*
X161900000Y-92700000D03*
%TD*%
D11*
%TO.C,I2C_PWM_DRIVER1*%
X153837500Y-85775000D03*
X153837500Y-86425000D03*
X153837500Y-87075000D03*
X153837500Y-87725000D03*
X153837500Y-88375000D03*
X153837500Y-89025000D03*
X153837500Y-89675000D03*
X153837500Y-90325000D03*
X153837500Y-90975000D03*
X153837500Y-91625000D03*
X153837500Y-92275000D03*
X153837500Y-92925000D03*
X153837500Y-93575000D03*
X153837500Y-94225000D03*
X159562500Y-94225000D03*
X159562500Y-93575000D03*
X159562500Y-92925000D03*
X159562500Y-92275000D03*
X159562500Y-91625000D03*
X159562500Y-90975000D03*
X159562500Y-90325000D03*
X159562500Y-89675000D03*
X159562500Y-89025000D03*
X159562500Y-88375000D03*
X159562500Y-87725000D03*
X159562500Y-87075000D03*
X159562500Y-86425000D03*
X159562500Y-85775000D03*
%TD*%
D12*
%TO.C,Q2*%
X163850000Y-94900000D03*
X165750000Y-94900000D03*
X164800000Y-91900000D03*
%TD*%
D13*
%TO.C,A2*%
X158225000Y-82500000D03*
D14*
X156775000Y-82500000D03*
%TD*%
D15*
%TO.C,J1*%
X239522000Y-104902000D03*
D16*
X236982000Y-104902000D03*
X234442000Y-104902000D03*
X231902000Y-104902000D03*
X229362000Y-104902000D03*
X226822000Y-104902000D03*
X224282000Y-104902000D03*
X221742000Y-104902000D03*
X219202000Y-104902000D03*
X216662000Y-104902000D03*
X214122000Y-104902000D03*
X211582000Y-104902000D03*
X209042000Y-104902000D03*
X206502000Y-104902000D03*
X203962000Y-104902000D03*
X201422000Y-104902000D03*
X198882000Y-104902000D03*
X196342000Y-104902000D03*
X193802000Y-104902000D03*
X191262000Y-104902000D03*
X188722000Y-104902000D03*
X186182000Y-104902000D03*
X183642000Y-104902000D03*
X181102000Y-104902000D03*
X178562000Y-104902000D03*
X176022000Y-104902000D03*
X173482000Y-104902000D03*
X170942000Y-104902000D03*
X168402000Y-104902000D03*
X165862000Y-104902000D03*
X163322000Y-104902000D03*
X160782000Y-104902000D03*
X239522000Y-102362000D03*
X236982000Y-102362000D03*
X234442000Y-102362000D03*
X231902000Y-102362000D03*
X229362000Y-102362000D03*
X226822000Y-102362000D03*
X224282000Y-102362000D03*
X221742000Y-102362000D03*
X219202000Y-102362000D03*
X216662000Y-102362000D03*
X214122000Y-102362000D03*
X211582000Y-102362000D03*
X209042000Y-102362000D03*
X206502000Y-102362000D03*
X203962000Y-102362000D03*
X201422000Y-102362000D03*
X198882000Y-102362000D03*
X196342000Y-102362000D03*
X193802000Y-102362000D03*
X191262000Y-102362000D03*
X188722000Y-102362000D03*
X186182000Y-102362000D03*
X183642000Y-102362000D03*
X181102000Y-102362000D03*
X178562000Y-102362000D03*
X176022000Y-102362000D03*
X173482000Y-102362000D03*
X170942000Y-102362000D03*
X168402000Y-102362000D03*
X165862000Y-102362000D03*
X163322000Y-102362000D03*
X160782000Y-102362000D03*
X239522000Y-99822000D03*
X236982000Y-99822000D03*
X234442000Y-99822000D03*
X231902000Y-99822000D03*
X229362000Y-99822000D03*
X226822000Y-99822000D03*
X224282000Y-99822000D03*
X221742000Y-99822000D03*
X219202000Y-99822000D03*
X216662000Y-99822000D03*
X214122000Y-99822000D03*
X211582000Y-99822000D03*
X209042000Y-99822000D03*
X206502000Y-99822000D03*
X203962000Y-99822000D03*
X201422000Y-99822000D03*
X198882000Y-99822000D03*
X196342000Y-99822000D03*
X193802000Y-99822000D03*
X191262000Y-99822000D03*
X188722000Y-99822000D03*
X186182000Y-99822000D03*
X183642000Y-99822000D03*
X181102000Y-99822000D03*
X178562000Y-99822000D03*
X176022000Y-99822000D03*
X173482000Y-99822000D03*
X170942000Y-99822000D03*
X168402000Y-99822000D03*
X165862000Y-99822000D03*
X163322000Y-99822000D03*
X160782000Y-99822000D03*
D17*
X244602000Y-107442000D03*
X155702000Y-107442000D03*
%TD*%
D13*
%TO.C,A1*%
X158225000Y-78800000D03*
D14*
X156775000Y-78800000D03*
%TD*%
D12*
%TO.C,Q1*%
X167350000Y-94900000D03*
X169250000Y-94900000D03*
X168300000Y-91900000D03*
%TD*%
D18*
%TO.C,R2*%
X155700000Y-67700000D03*
X155700000Y-69700000D03*
%TD*%
D19*
%TO.C,TP2*%
X193600000Y-53500000D03*
%TD*%
%TO.C,TP4*%
X237600000Y-53400000D03*
%TD*%
%TO.C,TP1*%
X171500000Y-53400000D03*
%TD*%
D18*
%TO.C,R3*%
X157700000Y-67700000D03*
X157700000Y-69700000D03*
%TD*%
D20*
%TO.C,D1*%
X152590000Y-62300000D03*
D21*
X153860000Y-62300000D03*
X155130000Y-62300000D03*
X156400000Y-62300000D03*
%TD*%
D18*
%TO.C,R1*%
X152500000Y-67700000D03*
X152500000Y-69700000D03*
%TD*%
D19*
%TO.C,TP3*%
X215700000Y-53500000D03*
%TD*%
D22*
%TO.C,C1*%
X160600000Y-84037500D03*
X160600000Y-81962500D03*
%TD*%
D13*
%TO.C,A0*%
X158225000Y-75200000D03*
D14*
X156775000Y-75200000D03*
%TD*%
D23*
%TO.C,R4*%
X171900000Y-91900000D03*
X173900000Y-91900000D03*
%TD*%
M02*
