%TF.GenerationSoftware,KiCad,Pcbnew,7.0.7*%
%TF.CreationDate,2024-06-20T17:34:35-04:00*%
%TF.ProjectId,Thruster_Control_Card,54687275-7374-4657-925f-436f6e74726f,rev?*%
%TF.SameCoordinates,Original*%
%TF.FileFunction,Paste,Top*%
%TF.FilePolarity,Positive*%
%FSLAX46Y46*%
G04 Gerber Fmt 4.6, Leading zero omitted, Abs format (unit mm)*
G04 Created by KiCad (PCBNEW 7.0.7) date 2024-06-20 17:34:35*
%MOMM*%
%LPD*%
G01*
G04 APERTURE LIST*
G04 Aperture macros list*
%AMRoundRect*
0 Rectangle with rounded corners*
0 $1 Rounding radius*
0 $2 $3 $4 $5 $6 $7 $8 $9 X,Y pos of 4 corners*
0 Add a 4 corners polygon primitive as box body*
4,1,4,$2,$3,$4,$5,$6,$7,$8,$9,$2,$3,0*
0 Add four circle primitives for the rounded corners*
1,1,$1+$1,$2,$3*
1,1,$1+$1,$4,$5*
1,1,$1+$1,$6,$7*
1,1,$1+$1,$8,$9*
0 Add four rect primitives between the rounded corners*
20,1,$1+$1,$2,$3,$4,$5,0*
20,1,$1+$1,$4,$5,$6,$7,0*
20,1,$1+$1,$6,$7,$8,$9,0*
20,1,$1+$1,$8,$9,$2,$3,0*%
G04 Aperture macros list end*
%ADD10RoundRect,0.250000X0.450000X-0.350000X0.450000X0.350000X-0.450000X0.350000X-0.450000X-0.350000X0*%
%ADD11RoundRect,0.100000X-0.637500X-0.100000X0.637500X-0.100000X0.637500X0.100000X-0.637500X0.100000X0*%
%ADD12R,0.800000X1.900000*%
%ADD13RoundRect,0.250000X-0.450000X0.350000X-0.450000X-0.350000X0.450000X-0.350000X0.450000X0.350000X0*%
%ADD14RoundRect,0.250000X0.475000X-0.337500X0.475000X0.337500X-0.475000X0.337500X-0.475000X-0.337500X0*%
%ADD15RoundRect,0.250000X-0.350000X-0.450000X0.350000X-0.450000X0.350000X0.450000X-0.350000X0.450000X0*%
G04 APERTURE END LIST*
D10*
%TO.C,R5*%
X161900000Y-94700000D03*
X161900000Y-92700000D03*
%TD*%
D11*
%TO.C,I2C_PWM_DRIVER1*%
X153837500Y-85775000D03*
X153837500Y-86425000D03*
X153837500Y-87075000D03*
X153837500Y-87725000D03*
X153837500Y-88375000D03*
X153837500Y-89025000D03*
X153837500Y-89675000D03*
X153837500Y-90325000D03*
X153837500Y-90975000D03*
X153837500Y-91625000D03*
X153837500Y-92275000D03*
X153837500Y-92925000D03*
X153837500Y-93575000D03*
X153837500Y-94225000D03*
X159562500Y-94225000D03*
X159562500Y-93575000D03*
X159562500Y-92925000D03*
X159562500Y-92275000D03*
X159562500Y-91625000D03*
X159562500Y-90975000D03*
X159562500Y-90325000D03*
X159562500Y-89675000D03*
X159562500Y-89025000D03*
X159562500Y-88375000D03*
X159562500Y-87725000D03*
X159562500Y-87075000D03*
X159562500Y-86425000D03*
X159562500Y-85775000D03*
%TD*%
D12*
%TO.C,Q2*%
X163850000Y-94900000D03*
X165750000Y-94900000D03*
X164800000Y-91900000D03*
%TD*%
%TO.C,Q1*%
X167350000Y-94900000D03*
X169250000Y-94900000D03*
X168300000Y-91900000D03*
%TD*%
D13*
%TO.C,R2*%
X155700000Y-67700000D03*
X155700000Y-69700000D03*
%TD*%
%TO.C,R3*%
X157700000Y-67700000D03*
X157700000Y-69700000D03*
%TD*%
%TO.C,R1*%
X152500000Y-67700000D03*
X152500000Y-69700000D03*
%TD*%
D14*
%TO.C,C1*%
X160600000Y-84037500D03*
X160600000Y-81962500D03*
%TD*%
D15*
%TO.C,R4*%
X171900000Y-91900000D03*
X173900000Y-91900000D03*
%TD*%
M02*
